<svg width="1600" height="1800" viewBox="0 0 1600 1800" xmlns="http://www.w3.org/2000/svg">
  <style>
    .box { fill: #fff; stroke: #000; stroke-width: 2; rx: 0; }
    .text { fill: #000; font-family: 'Inter', 'IBM Plex Sans', sans-serif; font-size: 28px; }
    .title { fill: #000; font-family: 'Inter', 'IBM Plex Sans', sans-serif; font-size: 42px; font-weight: 700; }
    .arrow { stroke: #000; stroke-width: 2; marker-end: url(#arrowhead); }
  </style>

  <defs>
    <marker id="arrowhead" markerWidth="12" markerHeight="8" refX="12" refY="4" orient="auto">
      <polygon points="0 0, 12 4, 0 8" fill="#000"/>
    </marker>
  </defs>

  <rect width="1600" height="1800" fill="#ffffff"/>

  <text class="title" x="300" y="120">BI / AI PLATFORM ARCHITECTURE</text>

  <rect class="box" x="450" y="200" width="700" height="120"/>
  <text class="text" x="480" y="265">Data Sources (Finance, Operations)</text>

  <rect class="box" x="450" y="380" width="700" height="120"/>
  <text class="text" x="510" y="445">Ingestion Layer — Python ETL / APIs</text>

  <line class="arrow" x1="800" y1="320" x2="800" y2="380"/>

  <rect class="box" x="300" y="580" width="1000" height="200"/>
  <text class="text" x="330" y="640">Data Modeling Layer</text>
  <text class="text" x="330" y="690">Staging → Intermediate → Semantic Layer</text>
  <text class="text" x="330" y="740">ARPU, Churn, Subsidy, Revenue Models</text>

  <line class="arrow" x1="800" y1="500" x2="800" y2="580"/>

  <rect class="box" x="200" y="880" width="500" height="140"/>
  <text class="text" x="230" y="950">Metric Layer</text>
  <text class="text" x="230" y="990">ARPU / Churn / Subsidy KPIs</text>

  <rect class="box" x="900" y="880" width="500" height="140"/>
  <text class="text" x="930" y="950">Dashboards</text>
  <text class="text" x="930" y="990">Executive + Ops Reporting</text>

  <line class="arrow" x1="700" y1="950" x2="900" y2="950"/>

  <rect class="box" x="450" y="1150" width="700" height="160"/>
  <text class="text" x="480" y="1220">ML Forecasting Engine</text>
  <text class="text" x="480" y="1270">Perk ROI Modeling — Feature → Model → Simulation</text>

  <line class="arrow" x1="800" y1="1020" x2="800" y2="1150"/>

</svg>
